<?xml version="1.0" encoding="UTF-8" standalone="no"?>
<!-- Generator: Adobe Illustrator 19.0.0, SVG Export Plug-In . SVG Version: 6.00 Build 0)  -->

<svg
   xmlns:dc="http://purl.org/dc/elements/1.1/"
   xmlns:cc="http://creativecommons.org/ns#"
   xmlns:rdf="http://www.w3.org/1999/02/22-rdf-syntax-ns#"
   xmlns:svg="http://www.w3.org/2000/svg"
   xmlns="http://www.w3.org/2000/svg"
   xmlns:sodipodi="http://sodipodi.sourceforge.net/DTD/sodipodi-0.dtd"
   xmlns:inkscape="http://www.inkscape.org/namespaces/inkscape"
   version="1.1"
   id="Capa_1"
   x="0px"
   y="0px"
   viewBox="0 0 512.043 512.043"
   style="enable-background:new 0 0 512.043 512.043;"
   xml:space="preserve"
   sodipodi:docname="bus-stop2.svg"
   inkscape:version="0.92.4 (5da689c313, 2019-01-14)"><metadata
   id="metadata1060"><rdf:RDF><cc:Work
       rdf:about=""><dc:format>image/svg+xml</dc:format><dc:type
         rdf:resource="http://purl.org/dc/dcmitype/StillImage" /><dc:title></dc:title></cc:Work></rdf:RDF></metadata><defs
   id="defs1058" /><sodipodi:namedview
   pagecolor="#ffffff"
   bordercolor="#666666"
   borderopacity="1"
   objecttolerance="10"
   gridtolerance="10"
   guidetolerance="10"
   inkscape:pageopacity="0"
   inkscape:pageshadow="2"
   inkscape:window-width="1920"
   inkscape:window-height="1017"
   id="namedview1056"
   showgrid="false"
   inkscape:zoom="1.3036186"
   inkscape:cx="267.37025"
   inkscape:cy="191.80679"
   inkscape:window-x="-8"
   inkscape:window-y="-8"
   inkscape:window-maximized="1"
   inkscape:current-layer="Capa_1" />
<g
   id="g1023">
	<g
   id="g1021">
		<g
   id="g1019">
			<path
   d="M473.21,0.021H200.923c-22.457,1.146-39.78,20.202-38.787,42.667v349.867c0,0.128,0.067,0.234,0.073,0.36     c0.028,0.964,0.22,1.917,0.569,2.816l0.053,0.18l0.014,0.048l20.196,46.408c2.47,5.928,8.221,9.825,14.642,9.921h7.121v34.133     c0.029,2.914,0.561,5.801,1.573,8.533H102.402v-153.6c-0.015-14.132-11.468-25.585-25.6-25.6V170.095     c35.76-4.505,61.856-36.034,59.599-72.006c-2.257-35.972-32.09-63.992-68.133-63.992S2.393,62.117,0.136,98.089     c-2.257,35.972,23.839,67.501,59.599,72.006v145.659c-14.132,0.015-25.585,11.468-25.6,25.6v153.6h-25.6     c-4.713,0-8.533,3.82-8.533,8.533s3.82,8.533,8.533,8.533h494.933c4.713,0,8.533-3.821,8.533-8.533s-3.82-8.533-8.533-8.533     h-35.706c1.012-2.733,1.544-5.62,1.572-8.533v-34.133h7.117c6.418-0.098,12.167-3.99,14.642-9.912l20.2-46.417l0.014-0.045     c0.026-0.061,0.031-0.128,0.056-0.19c0.35-0.902,0.543-1.857,0.569-2.824c0.005-0.121,0.07-0.223,0.07-0.345V42.688     C512.994,20.222,495.669,1.166,473.21,0.021z M17.069,102.421c0-28.277,22.923-51.2,51.2-51.2s51.2,22.923,51.2,51.2     s-22.923,51.2-51.2,51.2C40.004,153.59,17.1,130.685,17.069,102.421z M85.335,494.955H51.202v-153.6     c0.006-4.71,3.823-8.527,8.533-8.533h17.067c4.71,0.006,8.527,3.823,8.533,8.533V494.955z M256.002,486.421     c-0.006,4.71-3.823,8.527-8.533,8.533h-17.067c-4.71-0.006-8.527-3.823-8.533-8.533v-34.133h34.133V486.421z M271.496,494.955     c1.012-2.733,1.544-5.62,1.572-8.533v-34.133h128v34.133c0.029,2.914,0.561,5.801,1.573,8.533H271.496z M452.269,486.421     c-0.005,4.711-3.822,8.529-8.533,8.533h-17.067c-4.711-0.005-8.529-3.822-8.533-8.533v-34.133h34.133V486.421z M475.594,435.221     h-277.05l-14.854-34.133h306.763L475.594,435.221z M298.669,384.021v-17.067c0.006-4.71,3.823-8.527,8.533-8.533h59.733     c4.71,0.006,8.527,3.823,8.533,8.533v17.067H298.669z M494.935,42.688v341.333h-102.4v-17.067     c-0.015-14.132-11.468-25.585-25.6-25.6h-59.733c-14.132,0.015-25.585,11.468-25.6,25.6v17.067h-102.4V42.688     c-0.965-13.033,8.705-24.43,21.721-25.6H473.21C486.227,18.258,495.899,29.654,494.935,42.688z"
   id="path1009" />
			<path
   d="M452.269,34.155h-230.4c-14.132,0.015-25.585,11.468-25.6,25.6v8.533c0.015,14.132,11.468,25.585,25.6,25.6h230.4     c14.132-0.015,25.585-11.468,25.6-25.6v-8.533C477.853,45.623,466.401,34.17,452.269,34.155z M460.802,68.288     c-0.005,4.711-3.823,8.529-8.533,8.533h-230.4c-4.71-0.006-8.527-3.823-8.533-8.533v-8.533c0.006-4.71,3.823-8.527,8.533-8.533     h230.4c4.711,0.005,8.529,3.822,8.533,8.533V68.288z"
   id="path1011" />
			<path
   d="M230.402,298.688c-18.851,0-34.133,15.282-34.133,34.133c0.022,18.842,15.291,34.112,34.133,34.133     c18.851,0,34.133-15.282,34.133-34.133C264.535,313.97,249.253,298.688,230.402,298.688z M230.402,349.888     c-9.426,0-17.067-7.641-17.067-17.067c0.009-9.422,7.645-17.057,17.067-17.067c9.426,0,17.067,7.641,17.067,17.067     C247.469,342.247,239.828,349.888,230.402,349.888z"
   id="path1013" />
			<path
   d="M443.735,298.688c-18.851,0-34.133,15.282-34.133,34.133c0,18.851,15.282,34.133,34.133,34.133     c18.851,0,34.133-15.282,34.133-34.133C477.849,313.978,462.578,298.708,443.735,298.688z M443.735,349.888     c-9.426,0-17.067-7.641-17.067-17.067c0-9.426,7.641-17.067,17.067-17.067s17.067,7.641,17.067,17.067     C460.791,342.242,453.157,349.877,443.735,349.888z"
   id="path1015" />
			<path
   d="M452.269,110.955h-230.4c-14.132,0.015-25.585,11.468-25.6,25.6v119.467c0.015,14.132,11.468,25.585,25.6,25.6h230.4     c14.132-0.015,25.585-11.468,25.6-25.6V136.555C477.853,122.423,466.401,110.97,452.269,110.955z M460.802,256.021     c-0.005,4.711-3.823,8.529-8.533,8.533h-230.4c-4.71-0.006-8.527-3.823-8.533-8.533V136.555c0.006-4.71,3.823-8.527,8.533-8.533     h230.4c4.711,0.005,8.529,3.822,8.533,8.533V256.021z"
   id="path1017" />
		</g>
	</g>
</g>
<g
   id="g1025">
</g>
<g
   id="g1027">
</g>
<g
   id="g1029">
</g>
<g
   id="g1031">
</g>
<g
   id="g1033">
</g>
<g
   id="g1035">
</g>
<g
   id="g1037">
</g>
<g
   id="g1039">
</g>
<g
   id="g1041">
</g>
<g
   id="g1043">
</g>
<g
   id="g1045">
</g>
<g
   id="g1047">
</g>
<g
   id="g1049">
</g>
<g
   id="g1051">
</g>
<g
   id="g1053">
</g>
<path
   style="opacity:1;fill:#ffcc00;fill-opacity:1;stroke:#000000;stroke-width:1.08483696;stroke-opacity:1"
   d="m 180.37498,207.70623 0.28093,-175.565258 3.12286,-4.50617 c 1.99983,-2.885663 5.13371,-5.489984 8.71446,-7.241879 l 5.59159,-2.735709 140.62857,0.283321 140.62857,0.283321 4.70382,3.302682 c 2.5871,1.816476 5.92426,5.4778 7.41591,8.136278 l 2.71209,4.833594 0.28418,174.38754 0.28418,174.38753 h -51.0003 -51.00031 v -11.17779 c 0,-9.80558 -0.33945,-11.85897 -2.76512,-16.72665 -2.97788,-5.97582 -8.26981,-10.69175 -14.49442,-12.91676 -2.85577,-1.02081 -13.15563,-1.39855 -38.60957,-1.416 -32.63243,-0.0224 -35.00761,0.10876 -39.59654,2.18601 -6.05083,2.739 -10.3565,6.7388 -13.33513,12.38785 -1.79836,3.41063 -2.38322,6.83526 -2.73275,16.00135 l -0.4447,11.66199 h -50.33462 -50.33462 z m 65.37114,155.77468 c 6.46184,-3.33988 12.38026,-9.30693 15.87855,-16.00905 2.12462,-4.07041 2.54775,-6.50446 2.54591,-14.6453 -0.002,-8.49301 -0.38131,-10.48456 -2.91551,-15.30444 -3.7646,-7.16001 -12.03197,-14.53656 -19.15034,-17.08684 -7.75728,-2.77919 -19.34012,-2.15256 -26.71688,1.44539 -23.22388,11.32724 -25.86062,43.4361 -4.83714,58.90427 6.65407,4.89578 11.45963,6.22734 21.09253,5.84447 6.75058,-0.26831 9.88377,-0.9678 14.10288,-3.1485 z m 212.94813,0.40383 c 7.06855,-3.64691 12.49273,-9.10876 15.97198,-16.08285 2.67864,-5.3693 3.14125,-7.57478 3.14125,-14.97533 0,-7.40054 -0.46261,-9.60602 -3.14125,-14.97532 -3.45236,-6.92021 -8.81439,-12.34662 -15.97198,-16.16375 -3.91635,-2.08858 -6.30304,-2.48487 -14.96539,-2.48487 -8.66235,0 -11.04904,0.39629 -14.96539,2.48487 -7.20782,3.84392 -12.88935,9.58821 -16.14041,16.31873 -2.49402,5.16325 -2.95896,7.52421 -2.91853,14.82034 0.0854,15.41437 8.39055,27.28758 22.85342,32.67183 6.17693,2.29955 20.23374,1.43168 26.1363,-1.61365 z m 0.64125,-83.0389 c 6.77363,-2.03857 11.89199,-6.09576 15.55823,-12.33263 l 3.00749,-5.11621 0.34317,-63.46296 c 0.23541,-43.53499 -0.0336,-65.20266 -0.85672,-69.00322 -1.63078,-7.52994 -6.4501,-13.75081 -13.29541,-17.16197 l -5.60169,-2.79144 H 337.167 c -133.87263,0 -125.38436,-0.43607 -133.04836,6.83521 -7.99392,7.58429 -7.68495,4.43532 -7.68495,78.32449 0,61.99628 0.12622,66.44907 1.99882,70.5144 3.46508,7.52251 9.83298,12.72188 18.02301,14.71574 1.78999,0.43577 56.02205,0.84228 120.5157,0.90335 98.23772,0.0931 118.08907,-0.13811 122.36428,-1.42476 z M 457.82498,93.520126 c 7.19976,-1.544072 13.83733,-6.702001 17.30492,-13.447331 2.43166,-4.73019 2.77016,-6.723397 2.76185,-16.262541 -0.008,-9.062164 -0.40106,-11.606166 -2.36232,-15.284965 -3.12615,-5.863849 -10.05684,-11.98559 -15.18002,-13.408218 -6.11782,-1.698821 -241.07407,-1.607475 -246.75954,0.09594 -5.62698,1.685883 -12.16401,7.457349 -14.93878,13.189274 -3.0853,6.373376 -3.21648,24.055161 -0.22681,30.572443 3.3156,7.227795 10.13523,12.793463 18.03124,14.715738 5.52019,1.343882 235.06424,1.181892 241.36946,-0.170336 z"
   id="path1605"
   inkscape:connector-curvature="0" /><path
   style="opacity:1;fill:#ffcc00;fill-opacity:1;stroke:#000000;stroke-width:0.76709557;stroke-opacity:1"
   d="M 55.45651,151.71858 C 44.218996,148.76728 32.857123,140.71155 26.476005,131.17099 20.123178,121.67273 17.68308,113.69362 17.646718,102.29927 17.601131,88.014373 22.049702,77.36082 32.410175,66.943365 43.511079,55.781405 55.680073,51.045894 71.111443,51.882934 c 26.094917,1.415461 46.240437,21.513271 47.802097,47.688907 1.21303,20.332139 -9.9871,39.468299 -28.222405,48.219809 -3.979601,1.90989 -9.064891,3.8468 -11.300646,4.30423 -5.661156,1.15827 -18.880532,0.94988 -23.933979,-0.3773 z"
   id="path1607"
   inkscape:connector-curvature="0" /></svg>