<?xml version="1.0" encoding="UTF-8" standalone="no"?>
<!-- Generator: Adobe Illustrator 19.0.0, SVG Export Plug-In . SVG Version: 6.00 Build 0)  -->

<svg
   xmlns:dc="http://purl.org/dc/elements/1.1/"
   xmlns:cc="http://creativecommons.org/ns#"
   xmlns:rdf="http://www.w3.org/1999/02/22-rdf-syntax-ns#"
   xmlns:svg="http://www.w3.org/2000/svg"
   xmlns="http://www.w3.org/2000/svg"
   xmlns:sodipodi="http://sodipodi.sourceforge.net/DTD/sodipodi-0.dtd"
   xmlns:inkscape="http://www.inkscape.org/namespaces/inkscape"
   version="1.1"
   id="Capa_1"
   x="0px"
   y="0px"
   viewBox="0 0 512 512"
   style="enable-background:new 0 0 512 512;"
   xml:space="preserve"
   sodipodi:docname="tram.svg"
   inkscape:version="0.92.4 (5da689c313, 2019-01-14)"><metadata
   id="metadata1019"><rdf:RDF><cc:Work
       rdf:about=""><dc:format>image/svg+xml</dc:format><dc:type
         rdf:resource="http://purl.org/dc/dcmitype/StillImage" /></cc:Work></rdf:RDF></metadata><defs
   id="defs1017" /><sodipodi:namedview
   pagecolor="#ffffff"
   bordercolor="#666666"
   borderopacity="1"
   objecttolerance="10"
   gridtolerance="10"
   guidetolerance="10"
   inkscape:pageopacity="0"
   inkscape:pageshadow="2"
   inkscape:window-width="1920"
   inkscape:window-height="1017"
   id="namedview1015"
   showgrid="false"
   inkscape:zoom="1.1739077"
   inkscape:cx="199.23455"
   inkscape:cy="258.31211"
   inkscape:window-x="-8"
   inkscape:window-y="-8"
   inkscape:window-maximized="1"
   inkscape:current-layer="Capa_1" />
<g
   id="g922">
	<g
   id="g920">
		<path
   d="M366.624,136.704c-1.045-16.853-15.061-30.037-31.936-30.037H177.291c-16.853,0-30.891,13.184-31.936,30.037    l-6.699,108.629c0,29.696,89.813,32,117.333,32s117.333-2.304,117.312-32.64L366.624,136.704z M255.989,256    c-54.677,0-88.085-8.128-95.829-13.056l6.485-104.939c0.341-5.611,5.013-10.005,10.645-10.005h157.397    c5.632,0,10.304,4.395,10.645,10.027l6.507,104.917C344.117,247.851,310.709,256,255.989,256z"
   id="path918" />
	</g>
</g>
<g
   id="g928">
	<g
   id="g926">
		<path
   d="M159.989,320c-17.643,0-32,14.357-32,32c0,17.643,14.357,32,32,32s32-14.357,32-32    C191.989,334.357,177.632,320,159.989,320z M159.989,362.667c-5.888,0-10.667-4.779-10.667-10.667    c0-5.888,4.779-10.667,10.667-10.667s10.667,4.779,10.667,10.667C170.656,357.888,165.877,362.667,159.989,362.667z"
   id="path924" />
	</g>
</g>
<g
   id="g934">
	<g
   id="g932">
		<path
   d="M351.989,320c-17.643,0-32,14.357-32,32c0,17.643,14.357,32,32,32c17.643,0,32-14.357,32-32    C383.989,334.357,369.632,320,351.989,320z M351.989,362.667c-5.888,0-10.667-4.779-10.667-10.667    c0-5.888,4.779-10.667,10.667-10.667c5.888,0,10.667,4.779,10.667,10.667C362.656,357.888,357.877,362.667,351.989,362.667z"
   id="path930" />
	</g>
</g>
<g
   id="g940">
	<g
   id="g938">
		<path
   d="M287.989,341.333h-64c-5.888,0-10.667,4.779-10.667,10.667c0,5.888,4.779,10.667,10.667,10.667h64    c5.888,0,10.667-4.779,10.667-10.667C298.656,346.112,293.877,341.333,287.989,341.333z"
   id="path936" />
	</g>
</g>
<g
   id="g946">
	<g
   id="g944">
		<path
   d="M359.904,24.832C357.6,22.293,335.093,0,255.989,0S154.379,22.293,152.096,24.832c-3.861,4.267-3.541,10.709,0.619,14.72    c4.139,4.011,10.859,3.883,14.955-0.149c0.192-0.192,19.307-18.069,88.32-18.069c68.907,0,88.064,17.835,88.085,17.835    c2.112,2.325,5.013,3.499,7.915,3.499c2.56,0,5.12-0.917,7.168-2.752C363.531,35.947,363.872,29.205,359.904,24.832z"
   id="path942" />
	</g>
</g>
<g
   id="g952">
	<g
   id="g950">
		<path
   d="M293.472,12.181c-5.056-3.051-11.584-1.408-14.635,3.648l-22.848,38.101L233.12,15.829    c-3.029-5.035-9.579-6.699-14.635-3.648c-5.035,3.029-6.677,9.579-3.648,14.635l32,53.333c1.941,3.221,5.397,5.184,9.152,5.184    c3.755,0,7.211-1.963,9.131-5.184l32-53.333C300.149,21.76,298.528,15.211,293.472,12.181z"
   id="path948" />
	</g>
</g>
<g
   id="g958">
	<g
   id="g956">
		<path
   d="M407.968,113.792C406.112,85.867,382.731,64,354.741,64H157.237c-27.989,0-51.371,21.867-53.227,49.792L85.323,394.667    c0,31.424,89.941,53.333,170.667,53.333s170.667-21.909,170.645-54.037L407.968,113.792z M255.989,426.667    c-86.763,0-144.896-23.552-149.355-31.296L125.323,115.2c1.109-16.747,15.125-29.867,31.915-29.867h197.504    c16.789,0,30.805,13.12,31.915,29.867l18.859,278.293C400.885,403.115,342.752,426.667,255.989,426.667z"
   id="path954" />
	</g>
</g>
<g
   id="g964">
	<g
   id="g962">
		<path
   d="M145.611,418.56c-4.459-3.84-11.2-3.328-15.04,1.152l-64,74.667c-3.84,4.48-3.328,11.2,1.152,15.04    c2.005,1.728,4.48,2.581,6.933,2.581c3.008,0,5.995-1.259,8.107-3.733l64-74.667C150.603,429.12,150.091,422.4,145.611,418.56z"
   id="path960" />
	</g>
</g>
<g
   id="g970">
	<g
   id="g968">
		<path
   d="M445.429,494.379l-64-74.667c-3.84-4.48-10.56-4.992-15.04-1.152c-4.48,3.84-4.992,10.581-1.152,15.04l64,74.667    c2.091,2.475,5.077,3.733,8.085,3.733c2.453,0,4.928-0.853,6.955-2.581C448.757,505.579,449.269,498.837,445.429,494.379z"
   id="path966" />
	</g>
</g>
<g
   id="g976">
	<g
   id="g974">
		<path
   d="M415.989,469.333h-320c-5.888,0-10.667,4.779-10.667,10.667c0,5.888,4.779,10.667,10.667,10.667h320    c5.888,0,10.667-4.779,10.667-10.667C426.656,474.112,421.877,469.333,415.989,469.333z"
   id="path972" />
	</g>
</g>
<g
   id="g982">
	<g
   id="g980">
		<path
   d="M373.323,426.667H138.656c-5.888,0-10.667,4.779-10.667,10.667c0,5.888,4.779,10.667,10.667,10.667h234.667    c5.888,0,10.667-4.779,10.667-10.667C383.989,431.445,379.211,426.667,373.323,426.667z"
   id="path978" />
	</g>
</g>
<g
   id="g984">
</g>
<g
   id="g986">
</g>
<g
   id="g988">
</g>
<g
   id="g990">
</g>
<g
   id="g992">
</g>
<g
   id="g994">
</g>
<g
   id="g996">
</g>
<g
   id="g998">
</g>
<g
   id="g1000">
</g>
<g
   id="g1002">
</g>
<g
   id="g1004">
</g>
<g
   id="g1006">
</g>
<g
   id="g1008">
</g>
<g
   id="g1010">
</g>
<g
   id="g1012">
</g>
<path
   style="fill:#ffcc00;stroke:none;stroke-width:0.60235292"
   d="m 231.60471,425.85213 c -32.19387,-1.86848 -60.59508,-6.39814 -87.17237,-13.90298 -15.43585,-4.35874 -31.65286,-11.08998 -35.7376,-14.83371 l -1.83703,-1.68366 9.44686,-141.65923 c 10.42764,-156.366294 9.47061,-146.07612 14.27671,-153.5058 4.53805,-7.015308 11.95574,-12.175243 19.93347,-13.866236 6.0199,-1.276003 205.03292,-1.258438 211.05954,0.01863 7.79364,1.651509 15.3745,6.937627 19.83251,13.829176 4.75198,7.34598 3.79331,-2.831322 14.35927,152.43874 l 9.59153,140.95059 -2.72722,2.53404 c -5.08535,4.72512 -20.9627,11.54573 -38.2495,16.43125 -21.58843,6.10123 -44.67714,10.08219 -71.76789,12.37423 -13.10215,1.10853 -48.28908,1.61316 -61.00828,0.87496 z m -63.90088,-42.7425 c 6.30123,-1.61158 10.12538,-3.79111 14.81935,-8.4461 12.82607,-12.71959 12.84877,-32.44208 0.0521,-45.23878 -16.81658,-16.81658 -44.73281,-10.5076 -52.88517,11.95188 -6.3353,17.45356 4.04065,36.94365 22.20001,41.70031 5.72075,1.49849 10.04754,1.50744 15.81373,0.0327 z m 191.26666,0.25841 c 12.36901,-2.9154 21.8438,-12.52652 24.44351,-24.79525 1.17332,-5.53718 1.10443,-8.76826 -0.30437,-14.27662 -1.61158,-6.30123 -3.79111,-10.12538 -8.4461,-14.81935 -6.1444,-6.19584 -14.04856,-9.59663 -22.35543,-9.61851 -17.64553,-0.0464 -32.489,14.54176 -32.44979,31.89177 0.0469,20.76299 19.26238,36.29659 39.11218,31.61796 z m -65.69628,-21.98837 c 6.99803,-3.93311 7.30125,-14.02547 0.55552,-18.48958 l -2.5041,-1.65715 H 256 220.67437 l -2.5041,1.65715 c -6.54386,4.33052 -6.49782,14.26642 0.0844,18.21185 l 2.50769,1.50313 35.15564,0.005 c 34.34915,0.005 35.20611,-0.0226 37.35622,-1.23111 z m -2.94009,-84.89725 c 40.71565,-2.85028 66.83775,-9.62718 77.40665,-20.08173 6.68961,-6.61724 6.46962,-0.6624 2.43646,-65.95086 -2.16477,-35.04325 -3.80222,-57.63013 -4.32281,-59.62881 -1.51274,-5.80781 -3.88868,-9.82492 -8.64408,-14.61497 -4.75981,-4.79448 -8.7091,-7.15979 -14.5504,-8.71451 -4.64989,-1.23761 -168.46545,-1.29233 -173.10069,-0.0578 -11.5351,3.07216 -20.43791,11.96259 -23.41149,23.37894 -0.5681,2.18108 -2.09481,23.17806 -4.35957,59.95776 -4.02236,65.32297 -4.21127,59.62813 2.18738,65.9393 11.27606,11.1219 41.04701,17.99783 88.19246,20.369 12.18746,0.61297 45.8167,0.26821 58.16609,-0.5963 z"
   id="path1021"
   inkscape:connector-curvature="0" /></svg>