<?xml version="1.0" encoding="UTF-8" standalone="no"?>
<!-- Generator: Adobe Illustrator 19.0.0, SVG Export Plug-In . SVG Version: 6.00 Build 0)  -->

<svg
   xmlns:dc="http://purl.org/dc/elements/1.1/"
   xmlns:cc="http://creativecommons.org/ns#"
   xmlns:rdf="http://www.w3.org/1999/02/22-rdf-syntax-ns#"
   xmlns:svg="http://www.w3.org/2000/svg"
   xmlns="http://www.w3.org/2000/svg"
   xmlns:sodipodi="http://sodipodi.sourceforge.net/DTD/sodipodi-0.dtd"
   xmlns:inkscape="http://www.inkscape.org/namespaces/inkscape"
   version="1.1"
   id="Capa_1"
   x="0px"
   y="0px"
   viewBox="0 0 480 480"
   style="enable-background:new 0 0 480 480;"
   xml:space="preserve"
   sodipodi:docname="sunny2.svg"
   inkscape:version="0.92.4 (5da689c313, 2019-01-14)"><metadata
   id="metadata3997"><rdf:RDF><cc:Work
       rdf:about=""><dc:format>image/svg+xml</dc:format><dc:type
         rdf:resource="http://purl.org/dc/dcmitype/StillImage" /><dc:title></dc:title></cc:Work></rdf:RDF></metadata><defs
   id="defs3995" /><sodipodi:namedview
   pagecolor="#ffffff"
   bordercolor="#666666"
   borderopacity="1"
   objecttolerance="10"
   gridtolerance="10"
   guidetolerance="10"
   inkscape:pageopacity="0"
   inkscape:pageshadow="2"
   inkscape:window-width="1920"
   inkscape:window-height="1017"
   id="namedview3993"
   showgrid="false"
   inkscape:zoom="1.7708333"
   inkscape:cx="240"
   inkscape:cy="240"
   inkscape:window-x="-8"
   inkscape:window-y="-8"
   inkscape:window-maximized="1"
   inkscape:current-layer="Capa_1" />
<g
   id="g3860">
	<g
   id="g3858">
		<path
   d="M240,72c-92.784,0-168,75.216-168,168s75.216,168,168,168c92.742-0.101,167.899-75.258,168-168    C408,147.216,332.784,72,240,72z M240,392c-83.947,0-152-68.053-152-152S156.053,88,240,88c83.909,0.093,151.907,68.091,152,152    C392,323.947,323.947,392,240,392z"
   id="path3856" />
	</g>
</g>
<g
   id="g3866">
	<g
   id="g3864">
		<path
   d="M240,0c-4.418,0-8,3.582-8,8v48c0,4.418,3.582,8,8,8s8-3.582,8-8V8C248,3.582,244.418,0,240,0z"
   id="path3862" />
	</g>
</g>
<g
   id="g3872">
	<g
   id="g3870">
		<path
   d="M176.984,66.944l-12.248-29.6c-0.042-0.106-0.085-0.212-0.131-0.317c-1.78-4.044-6.501-5.88-10.545-4.1    c-4.044,1.78-5.88,6.501-4.1,10.545l12.24,29.6c1.24,2.991,4.162,4.94,7.4,4.936c1.049-0.001,2.089-0.208,3.058-0.61    C176.739,75.706,178.676,71.025,176.984,66.944z"
   id="path3868" />
	</g>
</g>
<g
   id="g3878">
	<g
   id="g3876">
		<path
   d="M73.072,162.2l-29.6-12.24c-0.105-0.046-0.21-0.09-0.317-0.131c-4.117-1.605-8.755,0.431-10.359,4.548    c-1.605,4.117,0.431,8.755,4.548,10.359l29.6,12.248c0.968,0.404,2.007,0.613,3.056,0.616c3.256,0.013,6.195-1.948,7.432-4.96    C79.111,168.553,77.159,163.879,73.072,162.2z"
   id="path3874" />
	</g>
</g>
<g
   id="g3884">
	<g
   id="g3882">
		<path
   d="M77.432,307.352c-1.692-4.082-6.374-6.02-10.456-4.328l-29.6,12.248c-2.995,1.239-4.946,4.164-4.941,7.405    c0.007,4.418,3.595,7.994,8.013,7.987c1.049-0.003,2.088-0.212,3.056-0.616l29.6-12.24    C77.187,316.116,79.124,311.435,77.432,307.352z"
   id="path3880" />
	</g>
</g>
<g
   id="g3890">
	<g
   id="g3888">
		<path
   d="M172.648,402.568c-4.083-1.692-8.764,0.245-10.456,4.328l-12.24,29.6c0,0.001-0.001,0.002-0.001,0.003    c-1.691,4.082,0.247,8.762,4.329,10.453c0.97,0.399,2.008,0.605,3.056,0.608c3.235,0.001,6.153-1.947,7.392-4.936l12.248-29.6    C178.668,408.941,176.73,404.26,172.648,402.568z"
   id="path3886" />
	</g>
</g>
<g
   id="g3896">
	<g
   id="g3894">
		<path
   d="M330.048,436.496l-12.24-29.6c-1.692-4.083-6.374-6.02-10.456-4.328c-4.083,1.692-6.02,6.373-4.328,10.456l12.248,29.6    c1.239,2.989,4.157,4.937,7.392,4.936c1.048-0.003,2.086-0.209,3.056-0.608c0.001,0,0.002-0.001,0.003-0.001    C329.805,445.258,331.741,440.577,330.048,436.496z"
   id="path3892" />
	</g>
</g>
<g
   id="g3902">
	<g
   id="g3900">
		<path
   d="M442.624,315.272l-29.6-12.248c-4.082-1.692-8.764,0.246-10.456,4.328c-1.692,4.083,0.246,8.764,4.328,10.456l29.6,12.24    c0.968,0.404,2.007,0.613,3.056,0.616c3.241,0.005,6.165-1.946,7.405-4.941C448.646,321.641,446.706,316.961,442.624,315.272z"
   id="path3898" />
	</g>
</g>
<g
   id="g3908">
	<g
   id="g3906">
		<path
   d="M447.073,154.06c-1.78-4.044-6.501-5.88-10.545-4.1l-29.6,12.24c-3.012,1.237-4.974,4.176-4.96,7.432    c0.018,4.418,3.614,7.985,8.032,7.968c1.049-0.003,2.088-0.212,3.056-0.616l29.6-12.248c0.107-0.042,0.212-0.085,0.317-0.131    C447.017,162.825,448.852,158.104,447.073,154.06z"
   id="path3904" />
	</g>
</g>
<g
   id="g3914">
	<g
   id="g3912">
		<path
   d="M325.623,32.796c-4.117-1.605-8.755,0.431-10.359,4.548l-12.248,29.6c-0.402,0.969-0.609,2.009-0.61,3.058    c-0.003,4.418,3.576,8.003,7.994,8.006c3.238,0.004,6.16-1.945,7.4-4.936l12.24-29.6c0.046-0.105,0.09-0.21,0.131-0.317    C331.776,39.039,329.74,34.401,325.623,32.796z"
   id="path3910" />
	</g>
</g>
<g
   id="g3924">
	<g
   id="g3922">
		<g
   id="g3920">
			<polygon
   points="109.888,117.888 109.884,117.888 109.88,117.888    "
   id="polygon3916" />
			<path
   d="M115.536,104.232L81.6,70.296c-0.15-0.163-0.306-0.319-0.469-0.469c-3.251-2.992-8.312-2.782-11.304,0.469     c-2.992,3.251-2.782,8.312,0.469,11.304l33.936,33.944c1.499,1.499,3.532,2.342,5.652,2.344c2.119-0.002,4.151-0.844,5.65-2.342     C118.659,112.422,118.66,107.357,115.536,104.232z"
   id="path3918" />
		</g>
	</g>
</g>
<g
   id="g3930">
	<g
   id="g3928">
		<path
   d="M56,232H8c-4.418,0-8,3.582-8,8s3.582,8,8,8h48c4.418,0,8-3.582,8-8S60.418,232,56,232z"
   id="path3926" />
	</g>
</g>
<g
   id="g3936">
	<g
   id="g3934">
		<path
   d="M115.544,364.26c-3.178-3.069-8.242-2.982-11.312,0.196l-33.936,33.936c-1.499,1.5-2.342,3.534-2.342,5.654    c-0.001,4.418,3.58,8.001,7.998,8.002c2.119-0.003,4.15-0.846,5.648-2.344l33.944-33.936c0.067-0.064,0.132-0.13,0.196-0.196    C118.81,372.394,118.722,367.329,115.544,364.26z"
   id="path3932" />
	</g>
</g>
<g
   id="g3942">
	<g
   id="g3940">
		<path
   d="M240,416c-4.418,0-8,3.582-8,8v48c0,4.418,3.582,8,8,8s8-3.582,8-8v-48C248,419.582,244.418,416,240,416z"
   id="path3938" />
	</g>
</g>
<g
   id="g3948">
	<g
   id="g3946">
		<path
   d="M409.704,398.4l-33.936-33.944c-0.064-0.066-0.129-0.132-0.196-0.196c-3.178-3.07-8.242-2.982-11.312,0.196    c-3.07,3.178-2.982,8.242,0.196,11.312l33.936,33.936c1.5,1.5,3.534,2.344,5.656,2.344v0.008c2.121,0,4.154-0.843,5.654-2.342    C412.827,406.59,412.828,401.525,409.704,398.4z"
   id="path3944" />
	</g>
</g>
<g
   id="g3954">
	<g
   id="g3952">
		<path
   d="M472,232h-48c-4.418,0-8,3.582-8,8s3.582,8,8,8h48c4.418,0,8-3.582,8-8S476.418,232,472,232z"
   id="path3950" />
	</g>
</g>
<g
   id="g3960">
	<g
   id="g3958">
		<path
   d="M409.704,69.828c-3.251-2.992-8.312-2.782-11.304,0.468l-33.944,33.936c-1.499,1.5-2.342,3.534-2.342,5.654    c-0.001,4.418,3.58,8.001,7.998,8.002c2.123-0.003,4.157-0.849,5.656-2.352L409.704,81.6c0.163-0.15,0.319-0.306,0.468-0.468    C413.165,77.881,412.955,72.82,409.704,69.828z"
   id="path3956" />
	</g>
</g>
<g
   id="g3962">
</g>
<g
   id="g3964">
</g>
<g
   id="g3966">
</g>
<g
   id="g3968">
</g>
<g
   id="g3970">
</g>
<g
   id="g3972">
</g>
<g
   id="g3974">
</g>
<g
   id="g3976">
</g>
<g
   id="g3978">
</g>
<g
   id="g3980">
</g>
<g
   id="g3982">
</g>
<g
   id="g3984">
</g>
<g
   id="g3986">
</g>
<g
   id="g3988">
</g>
<g
   id="g3990">
</g>
<path
   style="opacity:1;fill:#ffcc00;fill-opacity:1;stroke:#e78013;stroke-width:0.56470591;stroke-opacity:1"
   d="m 227.85882,391.28567 c -8.33503,-0.68216 -16.52482,-2.06419 -25.34673,-4.27727 -25.98574,-6.51884 -50.5872,-20.52274 -69.79247,-39.72802 -15.04281,-15.0428 -28.11011,-35.39966 -35.276324,-54.9551 -6.940503,-18.93952 -10.266825,-42.05194 -8.86953,-61.62853 1.551658,-21.73924 6.079731,-38.74549 15.340374,-57.6144 20.80665,-42.39434 60.10783,-72.68712 106.15645,-81.823874 11.26113,-2.23438 17.55997,-2.819149 30.21176,-2.804785 20.93413,0.02377 38.10367,3.387387 57.41794,11.248534 35.93575,14.626295 66.71703,44.925735 81.70892,80.429895 13.41172,31.76193 15.9116,65.39662 7.32472,98.55023 -6.55581,25.3117 -20.61908,49.76357 -39.45355,68.59803 -15.0428,15.04281 -35.39966,28.11011 -54.9551,35.27632 -19.8376,7.26961 -43.36808,10.45572 -64.46646,8.72897 z"
   id="path3999"
   inkscape:connector-curvature="0" /></svg>